<?xml version="1.0" encoding="utf-8"?>
<!-- Generator: Adobe Illustrator 25.0.0, SVG Export Plug-In . SVG Version: 6.00 Build 0)  -->
<svg version="1.1" id="Calque_1" xmlns="http://www.w3.org/2000/svg" xmlns:xlink="http://www.w3.org/1999/xlink" x="0px" y="0px"
	 viewBox="0 0 375 375" style="enable-background:new 0 0 375 375;" xml:space="preserve">
<style type="text/css">
	.st0{clip-path:url(#SVGID_2_);}
	.st1{clip-path:url(#SVGID_4_);}
	.st2{clip-path:url(#SVGID_6_);}
	.st3{fill:#1D1D1B;}
	.st4{clip-path:url(#SVGID_4_);fill:url(#SVGID_7_);}
	.st5{clip-path:url(#SVGID_4_);fill:none;}
</style>
<g>
	<defs>
		<rect id="SVGID_1_" x="-3.11" y="-8.04" width="375" height="375"/>
	</defs>
	<clipPath id="SVGID_2_">
		<use xlink:href="#SVGID_1_"  style="overflow:visible;"/>
	</clipPath>
	<g class="st0">
		<path d="M65.32,231.04l6.6-15h5.69V217c-0.54,0.02-0.98,0.08-1.31,0.2s-0.58,0.32-0.76,0.6s-0.3,0.67-0.36,1.16
			c-0.06,0.49-0.09,1.12-0.09,1.88v9.95c0,0.85,0.03,1.51,0.1,2c0.07,0.49,0.2,0.87,0.39,1.14c0.19,0.27,0.47,0.45,0.84,0.53
			c0.36,0.08,0.84,0.14,1.43,0.15v0.96h-8.22v-0.96c0.59-0.02,1.07-0.07,1.43-0.17c0.36-0.09,0.65-0.27,0.85-0.52
			s0.34-0.61,0.41-1.08c0.07-0.46,0.1-1.1,0.1-1.89v-11.78h-0.25l-7.41,16.65H64.2l-7.28-16.65h-0.1v11.6c0,0.85,0.03,1.51,0.1,2
			c0.07,0.49,0.2,0.87,0.39,1.14c0.19,0.27,0.47,0.45,0.84,0.53c0.36,0.08,0.84,0.14,1.43,0.15v0.96H52.5v-0.96
			c0.59-0.02,1.07-0.07,1.43-0.17c0.36-0.09,0.65-0.27,0.85-0.52c0.2-0.25,0.34-0.61,0.41-1.08c0.07-0.46,0.1-1.1,0.1-1.89v-10.31
			c0-0.71-0.03-1.3-0.09-1.76c-0.06-0.46-0.18-0.83-0.36-1.1c-0.18-0.27-0.44-0.46-0.77-0.57c-0.34-0.11-0.78-0.18-1.32-0.22v-0.96
			h6.07l6.4,15H65.32z"/>
	</g>
	<g class="st0">
		<path d="M85.62,230.78c0,0.85,0.03,1.51,0.1,2c0.07,0.49,0.2,0.87,0.39,1.14c0.19,0.27,0.47,0.45,0.84,0.53
			c0.36,0.08,0.84,0.14,1.43,0.15v0.96h-8.22v-0.96c0.59-0.02,1.07-0.07,1.43-0.17c0.36-0.09,0.65-0.27,0.85-0.52
			c0.2-0.25,0.34-0.61,0.41-1.08c0.07-0.46,0.1-1.1,0.1-1.89v-10.31c0-0.71-0.03-1.3-0.09-1.76c-0.06-0.46-0.18-0.83-0.36-1.1
			c-0.18-0.27-0.44-0.46-0.77-0.57c-0.34-0.11-0.78-0.18-1.32-0.22v-0.96h7.72V217c-0.54,0.02-0.98,0.08-1.31,0.2
			c-0.33,0.12-0.58,0.32-0.76,0.6s-0.3,0.67-0.36,1.16c-0.06,0.49-0.09,1.12-0.09,1.88V230.78z"/>
	</g>
	<g class="st0">
		<path d="M101.94,228.5h-6.78c-0.29,0.69-0.53,1.31-0.74,1.84c-0.2,0.53-0.37,0.99-0.5,1.38c-0.13,0.39-0.22,0.72-0.27,0.99
			s-0.08,0.49-0.08,0.66c0,0.47,0.15,0.8,0.46,0.98c0.3,0.18,0.81,0.27,1.52,0.27v0.96h-6.17v-0.96c0.39-0.05,0.72-0.12,1-0.2
			c0.28-0.08,0.52-0.2,0.74-0.35c0.21-0.15,0.4-0.35,0.56-0.6s0.32-0.55,0.47-0.9l6.6-16.52h1.09l5.76,14.32
			c0.39,0.95,0.73,1.71,1.02,2.27c0.29,0.57,0.57,0.99,0.84,1.28c0.27,0.29,0.56,0.47,0.88,0.56c0.31,0.08,0.69,0.13,1.13,0.13v0.99
			h-8.27v-0.99c0.9,0,1.51-0.08,1.85-0.25c0.34-0.17,0.51-0.45,0.51-0.84c0-0.17-0.01-0.33-0.03-0.47c-0.02-0.14-0.05-0.3-0.09-0.47
			c-0.04-0.17-0.1-0.36-0.18-0.57c-0.08-0.21-0.17-0.46-0.29-0.75L101.94,228.5z M95.68,227.23h5.79l-2.82-7.49L95.68,227.23z"/>
	</g>
	<g class="st0">
		<path d="M126.77,235.83l-12.06-15.89h-0.1v10.84c0,0.85,0.03,1.51,0.09,2c0.06,0.49,0.18,0.87,0.36,1.14s0.43,0.45,0.76,0.53
			c0.33,0.08,0.77,0.14,1.31,0.15v0.96h-6.83v-0.96c0.59-0.02,1.07-0.07,1.43-0.17c0.36-0.09,0.65-0.27,0.85-0.52
			c0.2-0.25,0.34-0.61,0.41-1.08c0.07-0.46,0.1-1.1,0.1-1.89v-10.31c0-0.71-0.03-1.3-0.09-1.76c-0.06-0.46-0.18-0.83-0.36-1.1
			c-0.18-0.27-0.44-0.46-0.77-0.57c-0.34-0.11-0.78-0.18-1.32-0.22v-0.96h5.03l11.09,14.8h0.1v-10c0-0.83-0.03-1.49-0.09-1.99
			s-0.18-0.88-0.35-1.16c-0.18-0.27-0.43-0.45-0.76-0.53s-0.77-0.14-1.31-0.15v-0.96h6.83V217c-0.59,0.02-1.07,0.07-1.43,0.17
			s-0.65,0.27-0.85,0.52c-0.2,0.25-0.34,0.62-0.41,1.09c-0.07,0.47-0.1,1.1-0.1,1.88v15.18H126.77z"/>
	</g>
	<g class="st0">
		<path d="M149.66,235.83l-12.06-15.89h-0.1v10.84c0,0.85,0.03,1.51,0.09,2c0.06,0.49,0.18,0.87,0.36,1.14s0.43,0.45,0.76,0.53
			c0.33,0.08,0.77,0.14,1.31,0.15v0.96h-6.83v-0.96c0.59-0.02,1.07-0.07,1.43-0.17c0.36-0.09,0.65-0.27,0.85-0.52
			c0.2-0.25,0.34-0.61,0.41-1.08c0.07-0.46,0.1-1.1,0.1-1.89v-10.31c0-0.71-0.03-1.3-0.09-1.76c-0.06-0.46-0.18-0.83-0.36-1.1
			c-0.18-0.27-0.44-0.46-0.77-0.57c-0.34-0.11-0.78-0.18-1.32-0.22v-0.96h5.03l11.09,14.8h0.1v-10c0-0.83-0.03-1.49-0.09-1.99
			s-0.18-0.88-0.35-1.16c-0.18-0.27-0.43-0.45-0.76-0.53s-0.77-0.14-1.31-0.15v-0.96h6.83V217c-0.59,0.02-1.07,0.07-1.43,0.17
			s-0.65,0.27-0.85,0.52c-0.2,0.25-0.34,0.62-0.41,1.09c-0.07,0.47-0.1,1.1-0.1,1.88v15.18H149.66z"/>
	</g>
	<g class="st0">
		<path d="M166.95,215.78c1.49,0,2.88,0.26,4.16,0.79s2.4,1.24,3.35,2.16c0.95,0.91,1.69,1.99,2.23,3.22s0.81,2.57,0.81,4.01
			c0,1.37-0.28,2.66-0.83,3.86c-0.55,1.2-1.3,2.25-2.25,3.13c-0.95,0.89-2.06,1.59-3.35,2.11c-1.29,0.52-2.67,0.77-4.14,0.77
			s-2.85-0.26-4.14-0.77c-1.29-0.52-2.4-1.22-3.35-2.11c-0.95-0.89-1.7-1.93-2.25-3.13c-0.55-1.2-0.82-2.49-0.82-3.86
			c0-1.44,0.27-2.77,0.81-4.01s1.29-2.31,2.23-3.22c0.95-0.91,2.06-1.63,3.35-2.16S165.46,215.78,166.95,215.78z M166.95,234.44
			c1.12,0,2.12-0.19,3.01-0.58c0.89-0.39,1.65-0.95,2.28-1.68c0.63-0.73,1.12-1.61,1.46-2.65c0.34-1.04,0.51-2.2,0.51-3.49
			c0-1.35-0.17-2.58-0.51-3.67c-0.34-1.09-0.82-2.02-1.45-2.79c-0.63-0.77-1.39-1.36-2.28-1.78c-0.9-0.41-1.9-0.62-3.02-0.62
			c-1.12,0-2.12,0.21-3.02,0.62c-0.9,0.42-1.66,1.01-2.28,1.78c-0.63,0.77-1.11,1.7-1.45,2.79c-0.34,1.09-0.51,2.31-0.51,3.67
			c0,1.29,0.17,2.45,0.51,3.49c0.34,1.04,0.82,1.92,1.45,2.65s1.39,1.29,2.28,1.68C164.82,234.24,165.83,234.44,166.95,234.44z"/>
	</g>
	<g class="st0">
		<path d="M185.55,224.84c0.91,0,1.68-0.05,2.3-0.17s1.11-0.28,1.47-0.52c0.36-0.24,0.62-0.54,0.79-0.91
			c0.16-0.37,0.24-0.81,0.24-1.32h0.89v6.93h-0.89c0-0.51-0.07-0.95-0.21-1.32c-0.14-0.37-0.4-0.68-0.76-0.93
			c-0.37-0.25-0.86-0.43-1.47-0.56s-1.4-0.19-2.35-0.19v5.74c0,0.56,0.07,1.02,0.2,1.38c0.13,0.36,0.37,0.66,0.7,0.89
			s0.77,0.39,1.31,0.48c0.54,0.09,1.21,0.14,2,0.14c0.9,0,1.66-0.06,2.29-0.19c0.62-0.13,1.15-0.34,1.57-0.65
			c0.42-0.3,0.76-0.71,1.01-1.21s0.47-1.12,0.63-1.87h0.96l-0.38,5H180.1v-0.96c0.59-0.02,1.07-0.07,1.43-0.15
			c0.36-0.08,0.65-0.23,0.85-0.43c0.2-0.2,0.34-0.49,0.41-0.86c0.07-0.37,0.1-0.85,0.1-1.45v-11.83c0-0.59-0.03-1.07-0.09-1.43
			c-0.06-0.36-0.18-0.65-0.36-0.86c-0.18-0.21-0.44-0.35-0.77-0.43c-0.34-0.08-0.78-0.13-1.32-0.17v-0.96h14.67l0.23,4.47h-0.89
			c-0.1-0.68-0.27-1.23-0.49-1.66s-0.54-0.77-0.94-1.03c-0.4-0.25-0.9-0.43-1.51-0.53s-1.35-0.15-2.21-0.15h-3.22
			c-0.29,0-0.43,0.14-0.43,0.43V224.84z M186.04,214l3.3-1.96c0.47-0.29,0.88-0.5,1.21-0.63s0.66-0.2,1-0.2
			c0.29,0,0.52,0.08,0.7,0.23s0.27,0.37,0.27,0.66c0,0.27-0.17,0.5-0.52,0.7c-0.35,0.2-0.81,0.36-1.38,0.5l-3.04,0.71H186.04z"/>
	</g>
	<g class="st0">
	</g>
	<g class="st0">
		<path d="M205.63,235.58v-0.96c0.64-0.02,1.16-0.06,1.56-0.14s0.71-0.22,0.93-0.43c0.22-0.21,0.37-0.5,0.44-0.86
			s0.11-0.85,0.11-1.46v-11.83c0-0.59-0.03-1.07-0.09-1.43c-0.06-0.36-0.18-0.65-0.36-0.86c-0.18-0.21-0.44-0.35-0.77-0.43
			c-0.34-0.08-0.78-0.13-1.32-0.17v-0.96h8.91c1.52,0,2.93,0.25,4.23,0.76c1.29,0.51,2.41,1.21,3.35,2.11
			c0.94,0.9,1.67,1.96,2.2,3.2c0.52,1.24,0.79,2.58,0.79,4.04c0,1.39-0.25,2.66-0.74,3.82c-0.49,1.16-1.18,2.15-2.07,2.98
			c-0.89,0.83-1.95,1.48-3.18,1.94c-1.24,0.47-2.59,0.7-4.06,0.7H205.63z M211.77,217.28c-0.29,0-0.43,0.14-0.43,0.43v13.73
			c0,1.93,1.26,2.89,3.78,2.89c2.32,0,4.09-0.69,5.33-2.07c1.24-1.38,1.85-3.41,1.85-6.08c0-1.4-0.17-2.66-0.51-3.76
			c-0.34-1.1-0.83-2.03-1.46-2.79c-0.63-0.76-1.4-1.35-2.3-1.75s-1.91-0.61-3.05-0.61H211.77z"/>
	</g>
	<g class="st0">
		<path d="M233.7,224.84c0.91,0,1.68-0.05,2.3-0.17c0.62-0.11,1.11-0.28,1.47-0.52c0.36-0.24,0.63-0.54,0.79-0.91
			c0.16-0.37,0.24-0.81,0.24-1.32h0.89v6.93h-0.89c0-0.51-0.07-0.95-0.22-1.32s-0.4-0.68-0.76-0.93c-0.36-0.25-0.85-0.43-1.47-0.56
			c-0.62-0.13-1.4-0.19-2.35-0.19v5.74c0,0.56,0.07,1.02,0.2,1.38c0.13,0.36,0.37,0.66,0.7,0.89s0.77,0.39,1.31,0.48
			c0.54,0.09,1.21,0.14,2,0.14c0.9,0,1.66-0.06,2.28-0.19c0.63-0.13,1.15-0.34,1.57-0.65c0.42-0.3,0.76-0.71,1.01-1.21
			s0.47-1.12,0.63-1.87h0.96l-0.38,5h-15.76v-0.96c0.59-0.02,1.07-0.07,1.43-0.15c0.36-0.08,0.65-0.23,0.85-0.43
			c0.2-0.2,0.34-0.49,0.41-0.86c0.07-0.37,0.1-0.85,0.1-1.45v-11.83c0-0.59-0.03-1.07-0.09-1.43c-0.06-0.36-0.18-0.65-0.36-0.86
			c-0.18-0.21-0.44-0.35-0.77-0.43c-0.34-0.08-0.78-0.13-1.32-0.17v-0.96h14.67l0.23,4.47h-0.89c-0.1-0.68-0.27-1.23-0.49-1.66
			s-0.54-0.77-0.94-1.03s-0.9-0.43-1.51-0.53c-0.61-0.1-1.35-0.15-2.21-0.15h-3.22c-0.29,0-0.43,0.14-0.43,0.43V224.84z"/>
	</g>
	<g class="st0">
		<path d="M247,229.61h0.94c0.12,0.76,0.34,1.45,0.67,2.06c0.33,0.61,0.74,1.13,1.24,1.55s1.08,0.75,1.73,0.98
			c0.65,0.23,1.36,0.34,2.12,0.34c1.25,0,2.24-0.3,2.97-0.89c0.73-0.59,1.09-1.4,1.09-2.41c0-0.42-0.07-0.81-0.22-1.17
			c-0.14-0.36-0.39-0.7-0.72-1.03c-0.34-0.33-0.79-0.66-1.36-0.98c-0.57-0.32-1.28-0.67-2.14-1.04c-1.05-0.46-1.93-0.9-2.64-1.32
			s-1.28-0.86-1.7-1.32c-0.42-0.46-0.72-0.94-0.9-1.46c-0.18-0.52-0.27-1.1-0.27-1.76c0-0.78,0.14-1.5,0.42-2.16
			s0.67-1.23,1.18-1.71c0.51-0.48,1.11-0.85,1.8-1.12c0.69-0.26,1.46-0.39,2.28-0.39c0.74,0,1.44,0.12,2.08,0.36
			c0.64,0.24,1.29,0.62,1.96,1.14l0.66-1.14h0.58l0.28,5.05h-0.94c-0.41-1.39-0.99-2.42-1.76-3.1c-0.77-0.68-1.7-1.01-2.78-1.01
			c-1.03,0-1.85,0.25-2.46,0.76c-0.61,0.51-0.91,1.19-0.91,2.06c0,0.41,0.07,0.77,0.2,1.1s0.36,0.64,0.66,0.94s0.7,0.59,1.19,0.89
			c0.49,0.3,1.1,0.6,1.83,0.93c1.25,0.56,2.29,1.08,3.12,1.56s1.49,0.96,1.98,1.45c0.49,0.48,0.84,0.99,1.04,1.52
			c0.2,0.53,0.3,1.13,0.3,1.79c0,0.85-0.17,1.62-0.51,2.33c-0.34,0.71-0.81,1.32-1.42,1.83c-0.61,0.51-1.34,0.9-2.18,1.18
			c-0.85,0.28-1.78,0.42-2.79,0.42c-0.96,0-1.83-0.14-2.6-0.41c-0.77-0.27-1.55-0.73-2.35-1.37l-0.71,1.24h-0.58L247,229.61z"/>
	</g>
	<g class="st0">
		<path d="M268.5,230.78c0,0.85,0.03,1.51,0.1,2c0.07,0.49,0.2,0.87,0.39,1.14s0.47,0.45,0.84,0.53c0.36,0.08,0.84,0.14,1.43,0.15
			v0.96h-8.22v-0.96c0.59-0.02,1.07-0.07,1.43-0.17c0.36-0.09,0.65-0.27,0.85-0.52s0.34-0.61,0.41-1.08c0.07-0.46,0.1-1.1,0.1-1.89
			v-10.31c0-0.71-0.03-1.3-0.09-1.76c-0.06-0.46-0.18-0.83-0.36-1.1c-0.18-0.27-0.44-0.46-0.77-0.57c-0.34-0.11-0.78-0.18-1.32-0.22
			v-0.96h7.72V217c-0.54,0.02-0.98,0.08-1.31,0.2s-0.58,0.32-0.76,0.6c-0.18,0.28-0.3,0.67-0.35,1.16
			c-0.06,0.49-0.09,1.12-0.09,1.88V230.78z"/>
	</g>
	<g class="st0">
		<path d="M283.3,235.83c-1.44,0-2.73-0.23-3.88-0.69c-1.15-0.46-2.13-1.1-2.94-1.94c-0.81-0.84-1.43-1.86-1.87-3.06
			s-0.65-2.54-0.65-4.01c0-1.54,0.24-2.94,0.71-4.21c0.47-1.27,1.14-2.36,1.99-3.27s1.88-1.62,3.07-2.12
			c1.19-0.5,2.51-0.75,3.95-0.75c1.02,0,1.97,0.14,2.87,0.43c0.9,0.29,1.87,0.75,2.92,1.4l0.53-1.57h0.89l-0.33,5.84h-1.22
			c0-0.83-0.16-1.54-0.47-2.14s-0.72-1.1-1.23-1.49c-0.51-0.39-1.09-0.68-1.74-0.86c-0.65-0.19-1.32-0.28-1.99-0.28
			c-1.03,0-1.95,0.2-2.77,0.61c-0.81,0.41-1.5,0.99-2.06,1.75c-0.56,0.76-0.99,1.69-1.28,2.79s-0.44,2.34-0.44,3.73
			c0,2.72,0.57,4.82,1.7,6.28c1.13,1.46,2.77,2.2,4.92,2.2c0.81,0,1.54-0.1,2.18-0.29c0.64-0.19,1.19-0.46,1.64-0.79
			s0.79-0.71,1.02-1.14s0.34-0.88,0.34-1.36c0-0.98-0.2-1.65-0.6-1.99c-0.4-0.35-1.04-0.52-1.94-0.52v-0.96h7.21v0.96
			c-0.41,0-0.74,0.03-1.01,0.1c-0.27,0.07-0.49,0.19-0.65,0.37c-0.16,0.18-0.27,0.41-0.33,0.7c-0.06,0.29-0.09,0.65-0.09,1.09v2.84
			c-0.32,0-0.61,0.01-0.88,0.04c-0.26,0.03-0.54,0.08-0.82,0.18c-0.29,0.09-0.61,0.22-0.95,0.38c-0.35,0.16-0.76,0.38-1.23,0.65
			c-0.59,0.34-1.27,0.61-2.04,0.81S284.21,235.83,283.3,235.83z"/>
	</g>
	<g class="st0">
		<path d="M312.13,235.83l-12.06-15.89h-0.1v10.84c0,0.85,0.03,1.51,0.09,2c0.06,0.49,0.18,0.87,0.36,1.14s0.43,0.45,0.76,0.53
			c0.33,0.08,0.76,0.14,1.31,0.15v0.96h-6.83v-0.96c0.59-0.02,1.07-0.07,1.43-0.17c0.36-0.09,0.65-0.27,0.85-0.52
			s0.34-0.61,0.41-1.08c0.07-0.46,0.1-1.1,0.1-1.89v-10.31c0-0.71-0.03-1.3-0.09-1.76c-0.06-0.46-0.18-0.83-0.36-1.1
			c-0.18-0.27-0.44-0.46-0.77-0.57c-0.34-0.11-0.78-0.18-1.32-0.22v-0.96h5.03l11.09,14.8h0.1v-10c0-0.83-0.03-1.49-0.09-1.99
			c-0.06-0.5-0.18-0.88-0.36-1.16c-0.18-0.27-0.43-0.45-0.76-0.53s-0.77-0.14-1.31-0.15v-0.96h6.83V217
			c-0.59,0.02-1.07,0.07-1.43,0.17c-0.36,0.09-0.65,0.27-0.85,0.52c-0.2,0.25-0.34,0.62-0.41,1.09s-0.1,1.1-0.1,1.88v15.18H312.13z"
			/>
	</g>
	<g class="st0">
		<path d="M81.85,245.86c0,1.21-0.33,2.11-0.98,2.72c-0.66,0.61-1.57,0.92-2.74,0.92h-1.99v-7.14h2.2c0.71,0,1.33,0.13,1.86,0.4
			s0.94,0.66,1.22,1.18S81.85,245.1,81.85,245.86z M80.9,245.89c0-0.95-0.24-1.65-0.71-2.09s-1.13-0.67-1.99-0.67h-1.17v5.6H78
			C79.94,248.73,80.9,247.78,80.9,245.89z"/>
	</g>
	<g class="st0">
		<path d="M87.42,249.5h-3.99v-7.14h3.99v0.79h-3.09v2.23h2.91v0.78h-2.91v2.55h3.09V249.5z M86.92,240.06v0.1
			c-0.09,0.12-0.21,0.28-0.38,0.46c-0.16,0.19-0.34,0.38-0.53,0.57c-0.19,0.19-0.37,0.34-0.52,0.46h-0.58v-0.12
			c0.09-0.12,0.2-0.27,0.32-0.45c0.12-0.18,0.24-0.36,0.35-0.54c0.11-0.18,0.21-0.35,0.28-0.5H86.92z"/>
	</g>
	<g class="st0">
		<path d="M92.05,243.05c-0.77,0-1.37,0.26-1.81,0.77c-0.44,0.51-0.66,1.22-0.66,2.11c0,0.89,0.21,1.59,0.61,2.1
			c0.41,0.52,1.02,0.78,1.84,0.78c0.31,0,0.6-0.03,0.88-0.08c0.28-0.05,0.56-0.12,0.83-0.2v0.78c-0.27,0.1-0.54,0.17-0.82,0.22
			c-0.28,0.05-0.62,0.07-1.01,0.07c-0.73,0-1.33-0.15-1.82-0.45c-0.49-0.3-0.85-0.73-1.09-1.28c-0.24-0.55-0.36-1.2-0.36-1.95
			c0-0.72,0.13-1.35,0.4-1.9c0.26-0.55,0.65-0.98,1.16-1.29s1.14-0.46,1.87-0.46c0.75,0,1.41,0.14,1.97,0.42l-0.36,0.76
			c-0.22-0.1-0.46-0.19-0.73-0.27C92.66,243.09,92.37,243.05,92.05,243.05z"/>
	</g>
	<g class="st0">
		<path d="M101.54,245.92c0,0.74-0.12,1.38-0.38,1.93s-0.62,0.98-1.11,1.28c-0.49,0.31-1.09,0.46-1.8,0.46
			c-0.74,0-1.35-0.15-1.84-0.46c-0.49-0.31-0.85-0.74-1.09-1.29c-0.24-0.55-0.36-1.2-0.36-1.94c0-0.73,0.12-1.37,0.36-1.92
			s0.6-0.98,1.09-1.28s1.11-0.46,1.85-0.46c0.71,0,1.31,0.15,1.8,0.46c0.49,0.3,0.85,0.73,1.1,1.28S101.54,245.18,101.54,245.92z
			 M95.9,245.92c0,0.9,0.19,1.61,0.57,2.12c0.38,0.52,0.97,0.78,1.78,0.78c0.81,0,1.4-0.26,1.77-0.78c0.38-0.52,0.56-1.22,0.56-2.12
			s-0.19-1.6-0.56-2.11s-0.96-0.76-1.77-0.76c-0.81,0-1.41,0.25-1.79,0.76S95.9,245.02,95.9,245.92z"/>
	</g>
	<g class="st0">
		<path d="M105.08,242.36c0.89,0,1.54,0.17,1.96,0.5c0.42,0.34,0.63,0.85,0.63,1.53c0,0.38-0.07,0.7-0.21,0.95
			c-0.14,0.25-0.32,0.46-0.53,0.61c-0.22,0.15-0.44,0.27-0.69,0.35l1.96,3.2h-1.05l-1.73-2.95h-1.42v2.95h-0.9v-7.14H105.08z
			 M105.03,243.14h-1.02v2.65h1.07c0.58,0,1-0.12,1.27-0.34c0.27-0.23,0.4-0.57,0.4-1.01c0-0.47-0.14-0.8-0.42-1
			S105.62,243.14,105.03,243.14z"/>
	</g>
	<g class="st0">
		<path d="M113.81,249.5l-0.86-2.21h-2.83l-0.85,2.21h-0.91l2.79-7.17h0.81l2.78,7.17H113.81z M112.68,246.49l-0.8-2.16
			c-0.02-0.05-0.05-0.15-0.1-0.29c-0.05-0.14-0.09-0.28-0.13-0.43s-0.08-0.26-0.1-0.34c-0.05,0.21-0.11,0.41-0.17,0.6
			c-0.06,0.2-0.1,0.35-0.15,0.46l-0.81,2.16H112.68z"/>
	</g>
	<g class="st0">
		<path d="M117.98,249.5h-0.9v-6.35h-2.23v-0.79h5.35v0.79h-2.22V249.5z"/>
	</g>
	<g class="st0">
		<path d="M123.29,249.5h-2.58v-0.52l0.84-0.19v-5.71l-0.84-0.2v-0.52h2.58v0.52l-0.84,0.2v5.71l0.84,0.19V249.5z"/>
	</g>
	<g class="st0">
		<path d="M130.89,245.92c0,0.74-0.12,1.38-0.38,1.93s-0.62,0.98-1.11,1.28c-0.49,0.31-1.09,0.46-1.8,0.46
			c-0.74,0-1.35-0.15-1.84-0.46c-0.49-0.31-0.85-0.74-1.09-1.29c-0.24-0.55-0.36-1.2-0.36-1.94c0-0.73,0.12-1.37,0.36-1.92
			s0.6-0.98,1.09-1.28s1.11-0.46,1.85-0.46c0.71,0,1.31,0.15,1.8,0.46c0.49,0.3,0.85,0.73,1.1,1.28S130.89,245.18,130.89,245.92z
			 M125.26,245.92c0,0.9,0.19,1.61,0.57,2.12c0.38,0.52,0.97,0.78,1.78,0.78c0.81,0,1.4-0.26,1.77-0.78
			c0.38-0.52,0.56-1.22,0.56-2.12s-0.19-1.6-0.56-2.11s-0.96-0.76-1.77-0.76c-0.81,0-1.41,0.25-1.79,0.76
			S125.26,245.02,125.26,245.92z"/>
	</g>
	<g class="st0">
		<path d="M138.13,249.5h-1.05l-3.82-5.93h-0.04c0.01,0.23,0.03,0.52,0.05,0.87s0.03,0.7,0.03,1.07v3.99h-0.83v-7.14h1.04l3.81,5.91
			h0.04c-0.01-0.11-0.01-0.27-0.02-0.48c-0.01-0.21-0.02-0.44-0.03-0.69c-0.01-0.25-0.02-0.49-0.02-0.71v-4.03h0.84V249.5z"/>
	</g>
	<g class="st0">
	</g>
	<g class="st0">
		<path d="M146.66,249.5h-3.99v-7.14h3.99v0.79h-3.09v2.23h2.91v0.78h-2.91v2.55h3.09V249.5z"/>
	</g>
	<g class="st0">
		<path d="M150.49,249.5h-0.9v-6.35h-2.23v-0.79h5.35v0.79h-2.22V249.5z"/>
	</g>
	<g class="st0">
	</g>
	<g class="st0">
		<path d="M160.86,249.5l-0.86-2.21h-2.83l-0.85,2.21h-0.91l2.79-7.17h0.81l2.78,7.17H160.86z M159.73,246.49l-0.8-2.16
			c-0.02-0.05-0.05-0.15-0.1-0.29c-0.05-0.14-0.09-0.28-0.13-0.43s-0.08-0.26-0.1-0.34c-0.05,0.21-0.11,0.41-0.17,0.6
			c-0.06,0.2-0.1,0.35-0.15,0.46l-0.81,2.16H159.73z"/>
	</g>
	<g class="st0">
		<path d="M164.74,242.36c0.89,0,1.54,0.17,1.96,0.5c0.42,0.34,0.63,0.85,0.63,1.53c0,0.38-0.07,0.7-0.21,0.95
			c-0.14,0.25-0.32,0.46-0.53,0.61c-0.22,0.15-0.44,0.27-0.69,0.35l1.96,3.2h-1.05l-1.73-2.95h-1.42v2.95h-0.9v-7.14H164.74z
			 M164.69,243.14h-1.02v2.65h1.07c0.58,0,1-0.12,1.27-0.34c0.27-0.23,0.4-0.57,0.4-1.01c0-0.47-0.14-0.8-0.42-1
			S165.28,243.14,164.69,243.14z"/>
	</g>
	<g class="st0">
		<path d="M172.05,243.05c-0.77,0-1.37,0.26-1.81,0.77c-0.44,0.51-0.66,1.22-0.66,2.11c0,0.89,0.21,1.59,0.61,2.1
			c0.41,0.52,1.02,0.78,1.84,0.78c0.31,0,0.6-0.03,0.88-0.08c0.28-0.05,0.56-0.12,0.83-0.2v0.78c-0.27,0.1-0.54,0.17-0.82,0.22
			c-0.28,0.05-0.62,0.07-1.01,0.07c-0.73,0-1.33-0.15-1.82-0.45c-0.49-0.3-0.85-0.73-1.09-1.28c-0.24-0.55-0.36-1.2-0.36-1.95
			c0-0.72,0.13-1.35,0.4-1.9c0.26-0.55,0.65-0.98,1.16-1.29s1.14-0.46,1.87-0.46c0.75,0,1.41,0.14,1.97,0.42l-0.36,0.76
			c-0.22-0.1-0.46-0.19-0.73-0.27C172.66,243.09,172.37,243.05,172.05,243.05z"/>
	</g>
	<g class="st0">
		<path d="M180.76,249.5h-0.9v-3.33h-3.66v3.33h-0.9v-7.14h0.9v3.02h3.66v-3.02h0.9V249.5z"/>
	</g>
	<g class="st0">
		<path d="M184.72,249.5h-2.58v-0.52l0.84-0.19v-5.71l-0.84-0.2v-0.52h2.58v0.52l-0.84,0.2v5.71l0.84,0.19V249.5z"/>
	</g>
	<g class="st0">
		<path d="M188.36,249.5h-0.9v-6.35h-2.23v-0.79h5.35v0.79h-2.22V249.5z"/>
	</g>
	<g class="st0">
		<path d="M195.65,249.5h-3.99v-7.14h3.99v0.79h-3.09v2.23h2.91v0.78h-2.91v2.55h3.09V249.5z"/>
	</g>
	<g class="st0">
		<path d="M200.28,243.05c-0.77,0-1.37,0.26-1.81,0.77c-0.44,0.51-0.66,1.22-0.66,2.11c0,0.89,0.21,1.59,0.62,2.1
			c0.41,0.52,1.02,0.78,1.84,0.78c0.31,0,0.6-0.03,0.88-0.08c0.28-0.05,0.56-0.12,0.83-0.2v0.78c-0.27,0.1-0.54,0.17-0.83,0.22
			c-0.28,0.05-0.62,0.07-1.01,0.07c-0.73,0-1.33-0.15-1.82-0.45s-0.85-0.73-1.09-1.28c-0.24-0.55-0.37-1.2-0.37-1.95
			c0-0.72,0.13-1.35,0.4-1.9c0.26-0.55,0.65-0.98,1.17-1.29c0.51-0.31,1.14-0.46,1.87-0.46c0.75,0,1.41,0.14,1.97,0.42l-0.36,0.76
			c-0.22-0.1-0.46-0.19-0.73-0.27C200.89,243.09,200.6,243.05,200.28,243.05z"/>
	</g>
	<g class="st0">
		<path d="M205.79,249.5h-0.9v-6.35h-2.23v-0.79h5.35v0.79h-2.22V249.5z"/>
	</g>
	<g class="st0">
		<path d="M214.52,242.36v4.62c0,0.49-0.1,0.94-0.3,1.33s-0.51,0.71-0.92,0.94c-0.41,0.23-0.93,0.34-1.56,0.34
			c-0.89,0-1.57-0.24-2.03-0.72s-0.69-1.12-0.69-1.91v-4.6h0.9v4.63c0,0.58,0.15,1.03,0.46,1.35c0.31,0.32,0.78,0.48,1.4,0.48
			c0.65,0,1.12-0.17,1.41-0.51c0.29-0.34,0.43-0.79,0.43-1.33v-4.62H214.52z"/>
	</g>
	<g class="st0">
		<path d="M218.37,242.36c0.89,0,1.54,0.17,1.96,0.5c0.42,0.34,0.64,0.85,0.64,1.53c0,0.38-0.07,0.7-0.21,0.95
			c-0.14,0.25-0.32,0.46-0.54,0.61s-0.45,0.27-0.68,0.35l1.96,3.2h-1.05l-1.73-2.95h-1.42v2.95h-0.9v-7.14H218.37z M218.32,243.14
			h-1.02v2.65h1.07c0.58,0,1-0.12,1.27-0.34c0.27-0.23,0.4-0.57,0.4-1.01c0-0.47-0.14-0.8-0.42-1
			C219.34,243.24,218.91,243.14,218.32,243.14z"/>
	</g>
	<g class="st0">
		<path d="M226.61,249.5h-3.99v-7.14h3.99v0.79h-3.09v2.23h2.91v0.78h-2.91v2.55h3.09V249.5z"/>
	</g>
	<g class="st0">
	</g>
	<g class="st0">
		<path d="M236.49,245.86c0,1.21-0.33,2.11-0.99,2.72c-0.66,0.61-1.57,0.92-2.74,0.92h-1.99v-7.14h2.2c0.71,0,1.33,0.13,1.87,0.4
			c0.53,0.27,0.94,0.66,1.22,1.18C236.35,244.46,236.49,245.1,236.49,245.86z M235.54,245.89c0-0.95-0.23-1.65-0.7-2.09
			c-0.47-0.44-1.13-0.67-2-0.67h-1.17v5.6h0.97C234.58,248.73,235.54,247.78,235.54,245.89z"/>
	</g>
	<g class="st0">
		<path d="M238.94,242.65c-0.23,0.84-0.66,1.91-0.94,2.37l-0.56,0.07c0.22-0.59,0.48-1.63,0.59-2.35L238.94,242.65z"/>
	</g>
	<g class="st0">
		<path d="M243.19,249.5h-2.58v-0.52l0.84-0.19v-5.71l-0.84-0.2v-0.52h2.58v0.52l-0.84,0.2v5.71l0.84,0.19V249.5z"/>
	</g>
	<g class="st0">
		<path d="M250.23,249.5h-1.05l-3.82-5.93h-0.04c0.01,0.23,0.03,0.52,0.05,0.87c0.02,0.35,0.03,0.7,0.03,1.07v3.99h-0.83v-7.14h1.04
			l3.81,5.91h0.04c-0.01-0.11-0.01-0.27-0.02-0.48c-0.01-0.21-0.02-0.44-0.03-0.69s-0.02-0.49-0.02-0.71v-4.03h0.84V249.5z"/>
	</g>
	<g class="st0">
		<path d="M254.43,249.5h-0.9v-6.35h-2.23v-0.79h5.35v0.79h-2.22V249.5z"/>
	</g>
	<g class="st0">
		<path d="M261.72,249.5h-3.99v-7.14h3.99v0.79h-3.09v2.23h2.91v0.78h-2.91v2.55h3.09V249.5z M261.22,240.06v0.1
			c-0.09,0.12-0.21,0.28-0.38,0.46c-0.16,0.19-0.34,0.38-0.53,0.57c-0.19,0.19-0.36,0.34-0.52,0.46h-0.58v-0.12
			c0.09-0.12,0.2-0.27,0.32-0.45c0.12-0.18,0.24-0.36,0.35-0.54c0.11-0.18,0.21-0.35,0.28-0.5H261.22z"/>
	</g>
	<g class="st0">
		<path d="M265.26,242.36c0.89,0,1.54,0.17,1.96,0.5c0.42,0.34,0.64,0.85,0.64,1.53c0,0.38-0.07,0.7-0.21,0.95
			c-0.14,0.25-0.32,0.46-0.54,0.61s-0.45,0.27-0.68,0.35l1.96,3.2h-1.05l-1.73-2.95h-1.42v2.95h-0.9v-7.14H265.26z M265.21,243.14
			h-1.02v2.65h1.07c0.58,0,1-0.12,1.27-0.34c0.27-0.23,0.4-0.57,0.4-1.01c0-0.47-0.14-0.8-0.42-1
			C266.23,243.24,265.79,243.14,265.21,243.14z"/>
	</g>
	<g class="st0">
		<path d="M271.51,249.5h-2.58v-0.52l0.84-0.19v-5.71l-0.84-0.2v-0.52h2.58v0.52l-0.84,0.2v5.71l0.84,0.19V249.5z"/>
	</g>
	<g class="st0">
		<path d="M276.88,249.5h-3.99v-7.14h3.99v0.79h-3.09v2.23h2.91v0.78h-2.91v2.55h3.09V249.5z"/>
	</g>
	<g class="st0">
		<path d="M283.88,242.36v4.62c0,0.49-0.1,0.94-0.3,1.33s-0.51,0.71-0.92,0.94c-0.41,0.23-0.93,0.34-1.56,0.34
			c-0.89,0-1.57-0.24-2.03-0.72s-0.69-1.12-0.69-1.91v-4.6h0.9v4.63c0,0.58,0.15,1.03,0.46,1.35c0.31,0.32,0.78,0.48,1.4,0.48
			c0.65,0,1.12-0.17,1.41-0.51c0.29-0.34,0.43-0.79,0.43-1.33v-4.62H283.88z"/>
	</g>
	<g class="st0">
		<path d="M287.73,242.36c0.89,0,1.54,0.17,1.96,0.5c0.42,0.34,0.64,0.85,0.64,1.53c0,0.38-0.07,0.7-0.21,0.95
			c-0.14,0.25-0.32,0.46-0.54,0.61s-0.45,0.27-0.68,0.35l1.96,3.2h-1.05l-1.73-2.95h-1.42v2.95h-0.9v-7.14H287.73z M287.68,243.14
			h-1.02v2.65h1.07c0.58,0,1-0.12,1.27-0.34c0.27-0.23,0.4-0.57,0.4-1.01c0-0.47-0.14-0.8-0.42-1
			C288.7,243.24,288.26,243.14,287.68,243.14z"/>
	</g>
	<g class="st0">
	</g>
</g>
<g>
	<defs>
		<rect id="SVGID_3_" x="111.99" y="94.38" width="151.01" height="139.05"/>
	</defs>
	<clipPath id="SVGID_4_">
		<use xlink:href="#SVGID_3_"  style="overflow:visible;"/>
	</clipPath>
	<g class="st1">
		<defs>
			<rect id="SVGID_5_" x="113.12" y="104.99" width="151.01" height="139.05"/>
		</defs>
		<clipPath id="SVGID_6_">
			<use xlink:href="#SVGID_5_"  style="overflow:visible;"/>
		</clipPath>
		<g class="st2">
			<path class="st3" d="M197.2,146.32c-0.67,1.75-1.34,3.5-2,5.25c-1.34,3.51-2.67,7.03-4.01,10.54c-0.93,2.43-1.87,4.86-2.81,7.28
				c-0.93,2.43-1.87,4.86-2.8,7.29c-1.01,2.62-2.01,5.24-3.03,7.86c-0.37,0.95-0.79,1.87-1.14,2.82c-0.09,0.25-0.1,0.59,0,0.83
				c0.7,1.81,1.71,3.47,3.12,4.84c1.21,1.18,2.72,1.88,4.44,2.12c0.15,0.02,0.3,0.07,0.6,0.13c-0.24,0.11-0.35,0.18-0.47,0.2
				c-3.5,0.64-6.86,0.37-9.88-1.61c-0.82-0.53-1.47-1.31-2.15-2.01c-1.5-1.52-2.23-3.45-3.08-5.33c-1.52-3.34-2.12-6.9-2.92-10.42
				c-0.97-4.32-1.85-8.66-2.98-12.95c-0.75-2.83-1.76-5.61-2.86-8.34c-0.75-1.86-1.73-3.66-2.84-5.34
				c-1.23-1.87-2.56-3.71-4.34-5.17c-0.05-0.04-0.12-0.05-0.25-0.11c-0.01,0.28-0.04,0.51-0.04,0.75c0,15.67,0,31.33-0.02,47
				c0,0.62,0.14,0.96,0.8,1.09c0.6,0.12,1.18,0.36,1.73,0.69c-2.46,0-4.92,0-7.38,0c-0.01-0.04-0.02-0.08-0.03-0.11
				c0.58-0.19,1.15-0.43,1.74-0.56c0.66-0.15,0.86-0.46,0.86-1.13c-0.03-7.19-0.02-14.38-0.02-21.57c0-8.91-0.04-17.82,0.04-26.72
				c0.01-1.33-0.56-1.98-1.63-2.49c-0.71-0.34-1.4-0.7-2.11-1.03c-2.71-1.28-5.57-2.07-8.54-2.49c-4.52-0.64-9.03-0.56-13.55-0.05
				c-0.09,0.01-0.18,0-0.28-0.1c0.91-0.13,1.82-0.3,2.74-0.4c4.28-0.46,8.57-0.67,12.87-0.29c3.76,0.33,7.43,1.01,10.95,2.4
				c3.25,1.29,6.19,3.01,8.76,5.33c2.32,2.1,4.16,4.52,5.77,7.16c1.28,2.1,2.11,4.36,3.07,6.58c1.32,3.06,2.04,6.28,2.76,9.49
				c1.03,4.61,1.96,9.24,2.98,13.85c0.28,1.27,0.75,2.5,1.16,3.87c0.11-0.21,0.2-0.35,0.26-0.49c0.44-1.22,0.86-2.44,1.32-3.65
				c1-2.69,2.01-5.38,3.03-8.07c0.9-2.39,1.82-4.78,2.72-7.17c1.01-2.69,2.02-5.38,3.03-8.07c0.96-2.56,1.93-5.12,2.89-7.69
				c0.96-2.54,1.91-5.08,2.88-7.62c0.23-0.61,0.49-1.21,0.79-1.79c0.09-0.17,0.38-0.34,0.58-0.34c6.52-0.05,13.05-0.21,19.47,1.14
				c2.68,0.56,5.26,1.38,7.71,2.6c3.42,1.7,6.46,3.86,8.88,6.78c0.81,0.98,1.57,2,2.32,3.03c1.89,2.59,2.81,5.55,3.61,8.59
				c0.73,2.77,0.8,5.56,0.34,8.32c-0.48,2.87-1.34,5.7-2.89,8.22c-1.48,2.41-3.29,4.59-5.53,6.39c-2.82,2.26-5.97,3.98-9.42,5.21
				c-7.44,2.66-15.14,2.98-22.94,2.52c-0.14-0.01-0.28-0.02-0.42-0.04c-1.9-0.19-1.63,0.2-1.62-1.8c0.01-6.51,0.02-13.02,0.01-19.53
				c-0.01-6.8-0.05-13.61-0.06-20.41c0-1.54,0.04-3.07,0.06-4.61c0-0.22,0-0.44,0-0.66C197.37,146.35,197.28,146.34,197.2,146.32z
				 M206.35,191.77c0.18,0.04,0.24,0.07,0.31,0.07c4.97-0.23,9.54-1.62,13.61-4.42c2.26-1.56,4.1-3.55,5.63-5.77
				c1.5-2.19,2.5-4.63,3.29-7.14c0.22-0.71,0.37-1.45,0.5-2.18c0.95-5.41,0.77-10.73-1.33-15.92c-0.9-2.21-1.9-4.35-3.4-6.26
				c-1.52-1.95-3.28-3.61-5.39-4.95c-3.77-2.39-7.91-3.23-12.35-3.02c-0.67,0.03-0.84,0.24-0.84,0.88c0,15.98-0.01,31.97-0.03,47.95
				C206.35,191.25,206.35,191.49,206.35,191.77z"/>
		</g>
	</g>
	<linearGradient id="SVGID_7_" gradientUnits="userSpaceOnUse" x1="134.5707" y1="130.2559" x2="142.3221" y2="130.2559">
		<stop  offset="0.0545" style="stop-color:#E3B563"/>
		<stop  offset="0.4848" style="stop-color:#F4E484"/>
		<stop  offset="0.5336" style="stop-color:#EFDE80"/>
		<stop  offset="0.599" style="stop-color:#E2CD73"/>
		<stop  offset="0.6738" style="stop-color:#CDB15F"/>
		<stop  offset="0.7551" style="stop-color:#AF8A43"/>
		<stop  offset="0.8364" style="stop-color:#8B5C21"/>
		<stop  offset="0.8539" style="stop-color:#98692A"/>
		<stop  offset="0.8862" style="stop-color:#B98B44"/>
		<stop  offset="0.9212" style="stop-color:#E4B664"/>
		<stop  offset="0.9818" style="stop-color:#814D24"/>
		<stop  offset="1" style="stop-color:#27190E"/>
	</linearGradient>
	<ellipse class="st4" cx="138.45" cy="130.26" rx="3.88" ry="3.75"/>
	<ellipse class="st5" cx="142.32" cy="137.76" rx="3.88" ry="3.75"/>
</g>
</svg>
